<?xml version="1.0" encoding="utf-8"?>
<!-- Generator: Adobe Illustrator 21.1.0, SVG Export Plug-In . SVG Version: 6.00 Build 0)  -->
<svg version="1.1" id="Capa_1" xmlns="http://www.w3.org/2000/svg" xmlns:xlink="http://www.w3.org/1999/xlink" x="0px" y="0px"
	 viewBox="0 0 649 512" style="enable-background:new 0 0 649 512;" xml:space="preserve">
<style type="text/css">
	.st0{fill:#7253D6;}
</style>
<g>
	<path class="st0" d="M307.7,418.1c-18.8,0-34.1,15.3-34.1,34.1s15.3,34.1,34.1,34.1c18.8,0,34.1-15.3,34.1-34.1
		S326.5,418.1,307.7,418.1z M307.7,469.3c-9.4,0-17.1-7.7-17.1-17.1s7.7-17.1,17.1-17.1c9.4,0,17.1,7.7,17.1,17.1
		S317.1,469.3,307.7,469.3z"/>
	<path class="st0" d="M282.1,42.7h34.1c4.7,0,8.5-3.8,8.5-8.5s-3.8-8.5-8.5-8.5h-34.1c-4.7,0-8.5,3.8-8.5,8.5S277.4,42.7,282.1,42.7
		z"/>
	<path class="st0" d="M341.8,42.7h8.5c4.7,0,8.5-3.8,8.5-8.5s-3.8-8.5-8.5-8.5h-8.5c-4.7,0-8.5,3.8-8.5,8.5S337.1,42.7,341.8,42.7z"
		/>
	<path class="st0" d="M614.9,102.4H461.3V37.6c0-20.7-16.9-37.6-37.6-37.6h-215c-20.7,0-37.6,16.9-37.6,37.6v436.8
		c0,20.7,16.9,37.6,37.6,37.6h214.9c20.7,0,37.6-16.9,37.6-37.6V281.6h153.6V102.4z M208.7,17.1h214.9c11.3,0,20.5,9.2,20.5,20.5
		v13.6h-256V37.6C188.2,26.3,197.4,17.1,208.7,17.1z M423.7,494.9h-215c-11.3,0-20.5-9.2-20.5-20.5v-64.8h256v64.8
		C444.2,485.7,435,494.9,423.7,494.9z M444.2,392.5h-256V68.3h256v34.1H290.6v179.2h34.1v59.7l79.6-59.7h39.8V392.5z M597.8,264.5
		H461.3h-62.6l-56.9,42.7v-42.7h-34.1V119.5h153.6h136.5V264.5z"/>
	<path class="st0" d="M350.3,179.2h85.3c4.7,0,8.5-3.8,8.5-8.5c0-4.7-3.8-8.5-8.5-8.5h-85.3c-4.7,0-8.5,3.8-8.5,8.5
		C341.8,175.4,345.6,179.2,350.3,179.2z"/>
	<path class="st0" d="M341.8,213.3c0,4.7,3.8,8.5,8.5,8.5h204.8c4.7,0,8.5-3.8,8.5-8.5s-3.8-8.5-8.5-8.5H350.3
		C345.6,204.8,341.8,208.6,341.8,213.3z"/>
</g>
</svg>
